<svg width="378" height="393" viewBox="0 0 378 393" fill="none" xmlns="http://www.w3.org/2000/svg">
<g opacity="0.2">
<path d="M-151.739 175.609C-152.919 173.219 -153.629 170.559 -153.749 167.719C-154.219 156.849 -145.779 147.649 -134.909 147.189C-84.3094 145.019 -39.8894 152.089 -2.8694 168.189C7.1106 172.529 11.6806 184.139 7.34059 194.119C3.0006 204.099 -8.60941 208.669 -18.5894 204.329C-49.6394 190.819 -89.2794 184.679 -133.219 186.559C-141.259 186.909 -148.379 182.389 -151.739 175.609Z" fill="#F8CB3F"/>
<path d="M-61.3195 79.4292C-56.0995 71.0592 -45.3195 67.7492 -36.1895 72.0692C-19.1795 80.1092 -3.02946 89.3092 11.8205 99.4092C63.7405 134.719 104.151 182.989 128.691 239.009C133.061 248.979 128.521 260.599 118.551 264.959C108.581 269.329 96.9605 264.779 92.6005 254.819C71.0405 205.599 35.4505 163.129 -10.3294 131.999C-23.4995 123.049 -37.8595 114.869 -53.0295 107.699C-62.8695 103.049 -67.0695 91.2992 -62.4195 81.4592C-62.0895 80.7492 -61.7195 80.0692 -61.3195 79.4292Z" fill="#BFD62F"/>
<path d="M-84.7194 9.26917C-80.0594 1.79917 -70.7794 -1.86083 -62.0094 0.939167C-13.9794 16.2592 28.9806 38.1392 65.6806 65.9692C74.3506 72.5492 76.0606 84.9392 69.4706 93.5792C62.8906 102.249 50.5305 103.949 41.8605 97.3692C8.75055 72.2492 -30.2294 52.4392 -73.9794 38.4892C-84.3494 35.1792 -90.0694 24.0992 -86.7694 13.7292C-86.2694 12.1192 -85.5694 10.6292 -84.7194 9.26917Z" fill="#15A2C4"/>
<path d="M112.041 150.059C113.451 147.799 115.341 145.789 117.691 144.199C126.691 138.079 138.951 140.429 145.061 149.429C173.511 191.329 190.871 232.829 196.641 272.779C198.191 283.549 190.721 293.549 179.951 295.099C169.181 296.659 159.181 289.189 157.631 278.409C152.791 244.899 137.171 207.959 112.451 171.569C107.941 164.909 108.041 156.469 112.041 150.059Z" fill="#F8CB3F"/>
<path d="M128.381 314.239C138.747 314.239 147.151 305.836 147.151 295.469C147.151 285.103 138.747 276.699 128.381 276.699C118.014 276.699 109.611 285.103 109.611 295.469C109.611 305.836 118.014 314.239 128.381 314.239Z" fill="#F8CB3F"/>
<path d="M97.5406 135.099C107.907 135.099 116.311 126.696 116.311 116.329C116.311 105.963 107.907 97.5592 97.5406 97.5592C87.1742 97.5592 78.7706 105.963 78.7706 116.329C78.7706 126.696 87.1742 135.099 97.5406 135.099Z" fill="#15A2C4"/>
<path d="M245.431 199.139C255.251 200.109 262.991 208.299 263.171 218.409C263.501 237.219 262.421 255.779 259.951 273.569C251.321 335.759 225.961 393.389 186.631 440.209C179.631 448.539 167.201 449.629 158.871 442.619C150.541 435.619 149.461 423.189 156.461 414.859C191.021 373.719 213.311 322.989 220.921 268.149C223.111 252.379 224.071 235.879 223.781 219.099C223.591 208.219 232.261 199.239 243.141 199.049C243.901 199.029 244.671 199.059 245.431 199.139Z" fill="#BFD62F"/>
<path d="M297.941 147.059C306.701 147.919 314.091 154.619 315.471 163.719C323.031 213.569 322.471 261.769 313.791 306.999C311.741 317.689 301.391 324.719 290.721 322.639C280.031 320.589 273.031 310.259 275.081 299.569C282.911 258.749 283.391 215.039 276.501 169.629C274.871 158.869 282.271 148.819 293.031 147.189C294.701 146.939 296.341 146.899 297.941 147.059Z" fill="#15A2C4"/>
<path d="M258.971 385.849C261.621 386.109 264.261 386.919 266.731 388.309C276.201 393.669 279.541 405.689 274.181 415.159C249.241 459.239 219.731 493.189 186.481 516.079C177.511 522.249 165.241 519.979 159.081 511.019C152.911 502.049 155.181 489.779 164.141 483.619C192.031 464.429 218.221 434.039 239.881 395.759C243.841 388.749 251.451 385.099 258.971 385.849Z" fill="#F8CB3F"/>
<path d="M237.091 184.249C247.457 184.249 255.861 175.846 255.861 165.479C255.861 155.113 247.457 146.709 237.091 146.709C226.724 146.709 218.321 155.113 218.321 165.479C218.321 175.846 226.724 184.249 237.091 184.249Z" fill="#BFD62F"/>
<path d="M282.781 376.669C293.147 376.669 301.551 368.266 301.551 357.899C301.551 347.533 293.147 339.129 282.781 339.129C272.414 339.129 264.011 347.533 264.011 357.899C264.011 368.266 272.414 376.669 282.781 376.669Z" fill="#15A2C4"/>
</g>
</svg>
