<svg width="377" height="393" viewBox="0 0 377 393" fill="none" xmlns="http://www.w3.org/2000/svg">
<g opacity="0.2">
<path d="M134.781 216.529C124.921 216.529 116.401 209.139 115.231 199.099C113.051 180.409 112.311 161.839 113.021 143.889C115.501 81.1492 135.071 21.3092 169.621 -29.1508C175.771 -38.1308 188.031 -40.4308 197.011 -34.2808C205.991 -28.1308 208.291 -15.8708 202.141 -6.8908C171.791 37.4492 154.591 90.1192 152.401 145.439C151.771 161.349 152.441 177.869 154.381 194.529C155.641 205.339 147.901 215.119 137.091 216.379C136.311 216.489 135.541 216.529 134.781 216.529Z" fill="#BFD62F"/>
<path d="M87.6406 273.519C78.8406 273.519 70.8206 267.579 68.5606 258.659C56.1406 209.799 51.9606 161.769 56.1606 115.909C57.1506 105.069 66.7606 97.0591 77.5806 98.0791C88.4206 99.0691 96.4006 108.659 95.4106 119.499C91.6206 160.889 95.4406 204.439 106.761 248.949C109.441 259.499 103.071 270.219 92.5206 272.899C90.8806 273.319 89.2406 273.519 87.6406 273.519Z" fill="#15A2C4"/>
<path d="M102.961 32.0592C100.301 32.0592 97.5906 31.5192 95.0006 30.3692C85.0506 25.9692 80.5506 14.3292 84.9506 4.37918C105.441 -41.9408 131.471 -78.6208 162.311 -104.671C170.631 -111.691 183.061 -110.641 190.081 -102.321C197.101 -94.0008 196.051 -81.5708 187.731 -74.5508C161.861 -52.7108 138.781 -19.9008 120.981 20.3292C117.741 27.6792 110.521 32.0592 102.961 32.0592Z" fill="#F8CB3F"/>
<path d="M146.381 267.979C156.747 267.979 165.151 259.576 165.151 249.209C165.151 238.843 156.747 230.439 146.381 230.439C136.014 230.439 127.611 238.843 127.611 249.209C127.611 259.576 136.014 267.979 146.381 267.979Z" fill="#BFD62F"/>
<path d="M82.0206 80.9792C92.387 80.9792 100.791 72.5756 100.791 62.2092C100.791 51.8428 92.387 43.4392 82.0206 43.4392C71.6542 43.4392 63.2506 51.8428 63.2506 62.2092C63.2506 72.5756 71.6542 80.9792 82.0206 80.9792Z" fill="#15A2C4"/>
<path d="M529.261 225.669C530.431 228.059 531.141 230.729 531.251 233.559C531.681 244.439 523.211 253.599 512.331 254.019C461.721 255.999 417.321 248.779 380.361 232.539C370.391 228.159 365.871 216.529 370.241 206.569C374.621 196.609 386.241 192.079 396.211 196.449C427.211 210.069 466.821 216.349 510.781 214.629C518.821 214.329 525.931 218.879 529.261 225.669Z" fill="#F8CB3F"/>
<path d="M417.051 312.899C411.041 320.719 399.981 322.959 391.321 317.769C375.181 308.099 360.011 297.359 346.221 285.859C298.011 245.639 262.521 193.639 243.591 135.479C240.221 125.129 245.871 114.009 256.231 110.639C266.581 107.269 277.701 112.929 281.071 123.279C297.701 174.369 328.961 220.119 371.471 255.589C383.701 265.789 397.191 275.329 411.591 283.959C420.931 289.549 423.961 301.659 418.361 310.989C417.941 311.659 417.511 312.299 417.051 312.899Z" fill="#BFD62F"/>
<path d="M433.461 385.019C428.091 391.989 418.501 394.729 410.051 391.089C363.751 371.139 323.141 345.159 289.351 313.869C281.371 306.479 280.871 293.969 288.281 286.019C295.671 278.029 308.141 277.559 316.131 284.949C346.621 313.189 383.471 336.719 425.651 354.889C435.641 359.199 440.261 370.789 435.951 380.779C435.281 382.329 434.441 383.739 433.461 385.019Z" fill="#15A2C4"/>
<path d="M251.441 225.629C249.821 227.739 247.741 229.549 245.251 230.909C235.691 236.109 223.721 232.579 218.521 223.019C194.311 178.539 181.101 135.539 179.271 95.2092C178.781 84.3392 187.191 75.1192 198.061 74.6292C208.931 74.1392 218.151 82.5492 218.641 93.4192C220.181 127.239 232.101 165.539 253.131 204.179C256.981 211.249 256.051 219.639 251.441 225.629Z" fill="#F8CB3F"/>
<path d="M249.421 98.0792C259.787 98.0792 268.191 89.6756 268.191 79.3092C268.191 68.9428 259.787 60.5392 249.421 60.5392C239.054 60.5392 230.651 68.9428 230.651 79.3092C230.651 89.6756 239.054 98.0792 249.421 98.0792Z" fill="#F8CB3F"/>
<path d="M262.561 279.379C272.927 279.379 281.331 270.976 281.331 260.609C281.331 250.243 272.927 241.839 262.561 241.839C252.194 241.839 243.791 250.243 243.791 260.609C243.791 270.976 252.194 279.379 262.561 279.379Z" fill="#15A2C4"/>
</g>
</svg>
