<svg width="745" height="132" viewBox="0 0 745 132" fill="none" xmlns="http://www.w3.org/2000/svg">
<path d="M729.11 97.78C721.06 92.25 711.33 90.19 701.73 91.98C692.59 93.68 684.61 98.67 679.09 106.09C682.61 108.23 685.74 111.03 688.29 114.42C688.79 115.08 688.66 116.02 688 116.52C687.34 117.02 686.4 116.89 685.9 116.23C681.05 109.8 673.98 105.67 665.99 104.6C653.63 102.95 641.43 109.24 635.61 120.25C635.34 120.76 634.82 121.05 634.28 121.05C634.04 121.05 633.8 120.99 633.58 120.88C632.85 120.49 632.57 119.59 632.96 118.85C637.68 109.92 646.23 103.82 655.83 101.96C655.86 101.67 655.97 101.38 656.17 101.13C658.47 98.35 660.16 95.17 661.19 91.67C665.34 77.58 657.26 62.73 643.16 58.57C633.86 55.83 623.84 58.35 616.93 65.14C619.79 67.7 622.21 70.77 624.05 74.25C624.44 74.98 624.16 75.89 623.43 76.28C623.21 76.4 622.97 76.45 622.73 76.45C622.19 76.45 621.67 76.16 621.4 75.65C617.13 67.56 609.4 61.9 600.48 60.24C600.49 60.62 600.51 60.99 600.51 61.37C600.51 68.55 598.86 75.41 595.61 81.76C595.35 82.28 594.82 82.58 594.27 82.58C594.04 82.58 593.81 82.53 593.59 82.41C592.85 82.03 592.56 81.13 592.94 80.39C595.97 74.47 597.51 68.07 597.51 61.36C597.51 60.54 597.48 59.73 597.43 58.93C597.36 58.73 597.34 58.51 597.36 58.28C597.36 58.26 597.37 58.24 597.37 58.22C595.76 36.61 577.67 19.52 555.66 19.52C542.68 19.52 530.39 25.62 522.49 35.88C528.97 42.03 533.02 50.71 533.02 60.32C533.02 65.72 531.78 70.88 529.34 75.65C529.08 76.17 528.55 76.47 528 76.47C527.77 76.47 527.54 76.42 527.32 76.3C526.58 75.92 526.29 75.02 526.67 74.28C528.89 69.93 530.02 65.23 530.02 60.31C530.02 43.38 516.24 29.6 499.31 29.6C486.69 29.6 475.84 37.25 471.12 48.15C471.41 48.73 471.32 49.45 470.81 49.91C470.66 50.05 470.49 50.14 470.31 50.21C469.2 53.37 468.6 56.77 468.6 60.31C468.6 61.14 467.93 61.81 467.1 61.81C466.27 61.81 465.6 61.14 465.6 60.31C465.6 56.25 466.32 52.36 467.64 48.75C464.36 45.52 460.34 43.07 455.93 41.64C448.34 39.18 440.24 39.82 433.13 43.44C426.02 47.07 420.75 53.24 418.29 60.84C418.08 61.47 417.5 61.88 416.86 61.88C416.71 61.88 416.55 61.86 416.4 61.81C415.61 61.55 415.18 60.71 415.44 59.92C418.15 51.57 423.95 44.77 431.77 40.78C432.84 40.23 433.93 39.76 435.04 39.33C434.85 28.05 428.67 17.59 418.88 11.99C405.37 4.27 388.19 7.45 378.33 19.29C381.88 21.05 385.12 23.46 387.9 26.47C388.46 27.08 388.42 28.03 387.81 28.59C387.52 28.86 387.16 28.99 386.79 28.99C386.39 28.99 385.98 28.83 385.69 28.51C380.23 22.59 372.78 19.17 364.73 18.9C358.88 18.7 353.18 20.2 348.21 23.22C345.95 24.59 343.89 26.26 342.06 28.18C341.49 28.78 340.54 28.8 339.94 28.23C339.34 27.66 339.32 26.71 339.89 26.11C341.59 24.32 343.5 22.74 345.55 21.38C345.4 9.57 335.72 0 323.84 0C311.85 0 302.09 9.76 302.09 21.75C302.09 25.23 302.89 28.56 304.46 31.64C304.84 32.38 304.54 33.28 303.81 33.66C303.59 33.77 303.36 33.83 303.13 33.83C302.59 33.83 302.06 33.53 301.79 33.01C300 29.5 299.09 25.72 299.09 21.75C299.09 17.09 300.39 12.72 302.64 9C299.4 7.18 295.76 6.22 292.01 6.22C283.42 6.22 275.8 11.15 272.26 18.88C285 26.8 293.51 40.92 293.51 56.99C293.51 57.82 292.84 58.49 292.01 58.49C291.18 58.49 290.51 57.82 290.51 56.99C290.51 33.92 271.74 15.15 248.67 15.15C225.6 15.15 206.83 33.92 206.83 56.99C206.83 63.69 208.37 70.09 211.4 76.02C211.78 76.76 211.49 77.66 210.75 78.04C210.53 78.15 210.3 78.21 210.07 78.21C209.53 78.21 209 77.91 208.73 77.39C206.13 72.31 204.58 66.91 204.05 61.27C201.02 62.92 198.35 65.06 196.1 67.56C196.09 67.57 196.09 67.58 196.08 67.59C191.71 72.47 188.99 78.73 188.53 85.49C187.99 93.45 190.58 101.15 195.83 107.16C201.08 113.17 208.35 116.78 216.31 117.33C221.09 117.66 225.72 116.87 230.09 115C230.85 114.67 231.73 115.03 232.06 115.79C232.39 116.55 232.03 117.43 231.27 117.76C227.17 119.52 222.85 120.4 218.41 120.4C217.65 120.4 216.88 120.37 216.11 120.32C207.35 119.72 199.34 115.75 193.57 109.13C187.8 102.51 184.95 94.04 185.54 85.28C186.02 78.27 188.71 71.77 193.03 66.55C188.21 60.65 181.46 56.87 173.87 55.86C161.52 54.21 149.32 60.5 143.5 71.51C144.98 75.95 145.79 80.69 145.79 85.62C145.79 86.45 145.12 87.12 144.29 87.12C143.46 87.12 142.79 86.45 142.79 85.62C142.79 62.55 124.02 43.78 100.95 43.78C77.88 43.78 59.09 62.54 59.09 85.61C59.09 92.31 60.63 98.71 63.66 104.64C64.04 105.38 63.75 106.28 63.01 106.66C62.79 106.77 62.56 106.83 62.33 106.83C61.79 106.83 61.26 106.53 60.99 106.01C58.08 100.31 56.46 94.2 56.16 87.82C54.87 88.35 53.61 88.96 52.4 89.65C42.86 95.1 36.77 105.18 36.28 116.12C38.93 117.07 41.5 118.35 43.9 120.01C44.58 120.48 44.75 121.41 44.28 122.1C43.81 122.78 42.87 122.95 42.19 122.48C32.17 115.57 19.11 115.4 8.91 122.04C5.31 124.38 2.28 127.48 0 131.07H136.79C133.44 127.21 131.57 122.35 131.5 117.19C131.42 111.4 133.6 105.93 137.64 101.79C138.22 101.2 139.17 101.19 139.76 101.76C140.35 102.34 140.37 103.29 139.79 103.88C136.31 107.45 134.43 112.16 134.5 117.15C134.57 122.13 136.57 126.8 140.14 130.27C140.37 130.49 140.48 130.78 140.54 131.07H331.38C332.68 126.79 333 122.22 332.28 117.77C331.02 109.95 326.8 103.09 320.38 98.45C313.96 93.81 306.12 91.95 298.31 93.21C293.62 93.96 289.31 95.76 285.51 98.54C284.84 99.03 283.9 98.88 283.41 98.22C282.92 97.55 283.07 96.61 283.73 96.12C287.92 93.05 292.66 91.07 297.82 90.24C302.8 89.44 307.79 89.8 312.48 91.22C312.53 75.81 325.08 63.28 340.5 63.28C355.95 63.28 368.52 75.85 368.52 91.3C368.52 97.42 366.58 103.24 362.91 108.12C362.62 108.51 362.16 108.72 361.71 108.72C361.4 108.72 361.08 108.62 360.81 108.42C360.15 107.92 360.01 106.98 360.51 106.32C363.78 101.96 365.51 96.77 365.51 91.3C365.51 77.5 354.29 66.28 340.49 66.28C326.69 66.28 315.47 77.5 315.47 91.3C315.47 91.62 315.36 91.92 315.19 92.17C317.62 93.15 319.95 94.43 322.12 96.01C329.19 101.12 333.84 108.67 335.23 117.28C335.97 121.88 335.71 126.59 334.49 131.05H593.51C593.58 130.73 593.74 130.43 594.01 130.2C599.43 125.62 602.75 119.21 603.34 112.14C603.93 105.07 601.75 98.19 597.17 92.77C596.64 92.14 596.72 91.19 597.35 90.66C597.98 90.13 598.93 90.21 599.46 90.84C604.55 96.87 606.99 104.53 606.33 112.4C605.73 119.55 602.62 126.09 597.52 131.05H744.83C745.96 117.95 739.99 105.24 729.11 97.78ZM447.78 115.72C447.74 115.72 447.7 115.72 447.66 115.72C446.89 115.72 446.23 115.12 446.17 114.34C445.51 106.05 440.39 98.82 432.8 95.45C425.3 92.13 416.57 93.14 410.02 98.09C409.36 98.59 408.42 98.46 407.92 97.8C407.42 97.14 407.55 96.2 408.21 95.7C415.63 90.09 425.52 88.95 434.01 92.71C442.61 96.52 448.41 104.72 449.16 114.1C449.22 114.93 448.6 115.66 447.78 115.72ZM543.61 90.19C542.94 90.67 542 90.51 541.52 89.84C540.56 88.49 539.48 87.23 538.3 86.09C528.7 76.72 513.8 75.6 502.87 83.4C490.44 92.28 487.55 109.62 496.43 122.05C496.91 122.72 496.76 123.66 496.08 124.14C495.82 124.33 495.51 124.42 495.21 124.42C494.74 124.42 494.28 124.2 493.99 123.79C489.22 117.12 487.34 108.99 488.69 100.9C490.04 92.81 494.46 85.73 501.13 80.96C513.24 72.31 529.76 73.56 540.4 83.94C541.7 85.21 542.9 86.61 543.96 88.1C544.44 88.77 544.28 89.71 543.61 90.19Z" fill="#A6EEFF"/>
</svg>
